<mxfile host="app.diagrams.net" modified="2024-07-20T04:41:34.980Z" agent="Mozilla/5.0 (Windows NT 10.0; Win64; x64) AppleWebKit/537.36 (KHTML, like Gecko) Chrome/126.0.0.0 Safari/537.36" version="24.7.1" etag="cFkPCy5uFqRW8WjftovH" type="github">
  <diagram name="Page-1" id="FheVSe9LFVu0Au37shlG">
    <mxGraphModel>
      <root>
        <mxCell id="0" />
        <mxCell id="1" parent="0" />
      </root>
    </mxGraphModel>
  </diagram>
</mxfile>
